<svg id="Capa_1" data-name="Capa 1" xmlns="http://www.w3.org/2000/svg" viewBox="0 0 700 300"><defs><style>.cls-1{fill:#f2f2f2;}.cls-2{fill:#e6e6e6;}.cls-10,.cls-3,.cls-4,.cls-5{fill:none;}.cls-3,.cls-5{stroke:#e6e6e6;}.cls-10,.cls-3{stroke-miterlimit:10;}.cls-10,.cls-4{stroke:#009ee1;}.cls-4,.cls-5{stroke-linecap:round;stroke-linejoin:round;stroke-width:2.83px;}.cls-6{opacity:0.18;}.cls-7{fill:#313131;}.cls-8{opacity:0.36;}.cls-9{fill:#009ee1;}</style></defs><title>bg-firma-correo</title><circle class="cls-1" cx="670" cy="32" r="14"/><circle class="cls-2" cx="283" cy="223" r="14"/><circle class="cls-3" cx="251" cy="11" r="20.5"/><path class="cls-2" d="M150,161.74a15,15,0,0,1-9,14,72.89,72.89,0,0,1-28.07,5.1c-20.14,0-37.09-7.16-51.84-21.87S39.16,126.64,39.16,105c0-21.41,7.17-39,21.92-53.73S92.77,29.39,112.9,29.39c15.87,0,31.23,5.74,46.72,17.5a11.37,11.37,0,0,0,14.91-1l25.32-25.44a11.43,11.43,0,0,0-1-17c-26.14-20.69-55-31.17-86-31.17-37.47,0-69.61,13.23-95.5,39.31s-39,57.49-39,93.45c0,36.29,13.13,67.82,39,93.72,21.74,21.74,47.91,34.36,77.88,37.89a6,6,0,0,1,2.15-2.52c.85-.62,12.41-6.17,28-12.95,16.47-7.18,37.41-15.73,55-21.34,12.61-4,23.49-6.52,29.72-5.89l.27,0V106a12.15,12.15,0,0,0-12.14-12.14H162.11A12.14,12.14,0,0,0,150,106Z"/><path class="cls-2" d="M249,240.69c.64-11.4-24.12-25-40.14-26.76l-.25,0c-5.76-.59-15.84,1.74-27.5,5.45-16.28,5.19-35.66,13.1-50.9,19.75-14.41,6.28-25.1,11.41-25.89,12a5.49,5.49,0,0,0-2,2.34,2.75,2.75,0,0,0-.14,1.57c.48,2.26,6.24,21.06,7,21.78s2.44,6.25,6.55,1.63c14.64-14,97.51-44.18,87.56-36.51-35.76,18.67-92.91,45.12-88.92,58.28,1.52,8.69,10.33,9.84,19.83,9.44s78.51-25.85,79.89-20.19c.55,2.25-5.07,6.31-13.64,10.49s-21.76,7.79-29.25,10.77-19.75,10.37-19.15,15.3,9.84,7.58,16.67,6.91,20.67-10.41,30.69-12.75c10.47-2.45,23.19-1,23.19-1-4.88-4.93-27.17-1.49-28-4.22-.66-2.26,36.45-2.71,37.29-27.79.65-19.81-44.71-12.17-44.71-12.17s61.1-22.81,61.76-34.27"/><line class="cls-4" x1="288.25" y1="29" x2="288.25" y2="48.5"/><line class="cls-4" x1="278.5" y1="38.75" x2="298" y2="38.75"/><line class="cls-5" x1="664.25" y1="128" x2="664.25" y2="147.5"/><line class="cls-5" x1="654.5" y1="137.75" x2="674" y2="137.75"/><line class="cls-5" x1="31.25" y1="234" x2="31.25" y2="253.5"/><line class="cls-5" x1="21.5" y1="243.75" x2="41" y2="243.75"/><line class="cls-4" x1="52.25" y1="255" x2="52.25" y2="274.5"/><line class="cls-4" x1="42.5" y1="264.75" x2="62" y2="264.75"/><g class="cls-6"><circle class="cls-7" cx="667" cy="247" r="3"/><circle class="cls-7" cx="658" cy="247" r="3"/><circle class="cls-7" cx="649" cy="247" r="3"/><circle class="cls-7" cx="640" cy="247" r="3"/><circle class="cls-7" cx="631" cy="247" r="3"/><circle class="cls-7" cx="622" cy="247" r="3"/><circle class="cls-7" cx="667" cy="256" r="3"/><circle class="cls-7" cx="658" cy="256" r="3"/><circle class="cls-7" cx="649" cy="256" r="3"/><circle class="cls-7" cx="640" cy="256" r="3"/><circle class="cls-7" cx="631" cy="256" r="3"/><circle class="cls-7" cx="622" cy="256" r="3"/><circle class="cls-7" cx="667" cy="265" r="3"/><circle class="cls-7" cx="658" cy="265" r="3"/><circle class="cls-7" cx="649" cy="265" r="3"/><circle class="cls-7" cx="640" cy="265" r="3"/><circle class="cls-7" cx="631" cy="265" r="3"/><circle class="cls-7" cx="622" cy="265" r="3"/><circle class="cls-7" cx="667" cy="274" r="3"/><circle class="cls-7" cx="658" cy="274" r="3"/><circle class="cls-7" cx="649" cy="274" r="3"/><circle class="cls-7" cx="640" cy="274" r="3"/><circle class="cls-7" cx="631" cy="274" r="3"/><circle class="cls-7" cx="622" cy="274" r="3"/></g><g class="cls-8"><circle class="cls-9" cx="79" cy="26" r="3"/><circle class="cls-9" cx="70" cy="26" r="3"/><circle class="cls-9" cx="61" cy="26" r="3"/><circle class="cls-9" cx="52" cy="26" r="3"/><circle class="cls-9" cx="43" cy="26" r="3"/><circle class="cls-9" cx="34" cy="26" r="3"/><circle class="cls-9" cx="79" cy="35" r="3"/><circle class="cls-9" cx="70" cy="35" r="3"/><circle class="cls-9" cx="61" cy="35" r="3"/><circle class="cls-9" cx="52" cy="35" r="3"/><circle class="cls-9" cx="43" cy="35" r="3"/><circle class="cls-9" cx="34" cy="35" r="3"/><circle class="cls-9" cx="79" cy="44" r="3"/><circle class="cls-9" cx="70" cy="44" r="3"/><circle class="cls-9" cx="61" cy="44" r="3"/><circle class="cls-9" cx="52" cy="44" r="3"/><circle class="cls-9" cx="43" cy="44" r="3"/><circle class="cls-9" cx="34" cy="44" r="3"/><circle class="cls-9" cx="79" cy="53" r="3"/><circle class="cls-9" cx="70" cy="53" r="3"/><circle class="cls-9" cx="61" cy="53" r="3"/><circle class="cls-9" cx="52" cy="53" r="3"/><circle class="cls-9" cx="43" cy="53" r="3"/><circle class="cls-9" cx="34" cy="53" r="3"/></g><circle class="cls-10" cx="621.5" cy="244.5" r="28"/></svg>