<svg xmlns="http://www.w3.org/2000/svg" viewBox="0 0 18.62 13.96"><defs><style>.cls-1{fill:#009ee1;}</style></defs><title>mailRecurso 6</title><g id="Capa_2" data-name="Capa 2"><g id="Capa_1-2" data-name="Capa 1"><path class="cls-1" d="M14.74,5.45V1.55A1.56,1.56,0,0,0,13.19,0H1.55A1.56,1.56,0,0,0,0,1.55V9.31a1.55,1.55,0,0,0,1.55,1.55h8.7a4.27,4.27,0,0,0,6.24,2.53.4.4,0,0,0,.14-.53.39.39,0,0,0-.53-.14,3.45,3.45,0,0,1-1.75.47A3.49,3.49,0,1,1,17.84,9.7v.39a.77.77,0,0,1-.77.77.78.78,0,0,1-.78-.77V8.53a.38.38,0,0,0-.39-.38.4.4,0,0,0-.26.1,2,2,0,0,0-1.29-.49,1.94,1.94,0,1,0,0,3.88A1.92,1.92,0,0,0,15.8,11a1.55,1.55,0,0,0,2.82-.88V9.7A4.28,4.28,0,0,0,14.74,5.45ZM1.55.78H13.23L7.69,5.34a.66.66,0,0,1-.61,0L1.51.78ZM14,5.45A4.27,4.27,0,0,0,10.09,9.7c0,.13,0,.26,0,.39H1.55a.77.77,0,0,1-.77-.78V1.55a.81.81,0,0,1,.06-.31L6.62,6a1.35,1.35,0,0,0,.75.23A1.38,1.38,0,0,0,8.09,6l.07,0L13.9,1.24a.81.81,0,0,1,.06.31v3.9Zm.39,5.41a1.17,1.17,0,0,1,0-2.33,1.17,1.17,0,1,1,0,2.33Z"/></g></g></svg>