<svg xmlns="http://www.w3.org/2000/svg" viewBox="0 0 11.94 16.98"><defs><style>.cls-1{fill:#009ee1;}</style></defs><title>mapRecurso 4</title><g id="Capa_2" data-name="Capa 2"><g id="Capa_1-2" data-name="Capa 1"><path class="cls-1" d="M10.13,1.7A5.75,5.75,0,0,0,6,0,5.91,5.91,0,0,0,.85,3,6.61,6.61,0,0,0,.68,9.16a38.26,38.26,0,0,0,4.25,6.72l.78,1A.33.33,0,0,0,6,17a.34.34,0,0,0,.27-.13l.76-1a39,39,0,0,0,4.27-6.73A6.62,6.62,0,0,0,10.13,1.7Zm.53,7.16a38.24,38.24,0,0,1-4.19,6.61L6,16.1l-.5-.65A36,36,0,0,1,1.29,8.86a5.9,5.9,0,0,1,.15-5.52A5.22,5.22,0,0,1,6,.68,5,5,0,0,1,9.64,2.17,5.93,5.93,0,0,1,10.66,8.86Z"/><path class="cls-1" d="M8.53,5a.34.34,0,0,0-.44-.19.34.34,0,0,0-.19.44h0A2.12,2.12,0,0,1,8,6.53a2.07,2.07,0,0,1-3.48,1,2.13,2.13,0,0,1-.57-2A2.06,2.06,0,0,1,6.41,4a2,2,0,0,1,.37.12.35.35,0,0,0,.45-.18.35.35,0,0,0-.18-.45A2.75,2.75,0,0,0,3.29,5.41,2.82,2.82,0,0,0,4,8,2.76,2.76,0,0,0,6,8.83a2.56,2.56,0,0,0,.62-.07A2.72,2.72,0,0,0,8.66,6.68,2.8,2.8,0,0,0,8.53,5Z"/></g></g></svg>