<svg xmlns="http://www.w3.org/2000/svg" viewBox="0 0 17.52 16.39"><defs><style>.cls-1{fill:#009ee1;}</style></defs><title>phoneRecurso 3</title><g id="Capa_2" data-name="Capa 2"><g id="Capa_1-2" data-name="Capa 1"><path class="cls-1" d="M17.25,11.46c-.94-.52-1.75-1.05-2.34-1.44s-.77-.5-1-.62a1.16,1.16,0,0,0-1.36.1l-.06.07a7.38,7.38,0,0,1-1.86,2.09A12.24,12.24,0,0,1,7.47,9.61,6.83,6.83,0,0,1,5,6.46c.93-1,1.27-1.56,1.27-2.24A14.28,14.28,0,0,0,4.29.27c-.3-.3-1-.35-2-.14A.45.45,0,0,0,2,.27C1.9.39-1,3.36.37,7c1.52,4,5.43,8.55,10.41,9.29a10,10,0,0,0,1.59.13c2.93,0,4.65-1.47,5.14-4.4A.51.51,0,0,0,17.25,11.46Zm-6.32,3.79c-5.27-.79-8.58-6-9.6-8.65s.85-5,1.32-5.5A3.85,3.85,0,0,1,3.6,1,18,18,0,0,1,5.21,4.22c0,.27-.09.64-1.13,1.69a.48.48,0,0,0-.15.36c0,2.68,5.66,6.41,6.67,6.41s2-1.47,2.65-2.42a.39.39,0,0,1,.19.06,10.58,10.58,0,0,1,.91.56c.54.35,1.25.82,2.08,1.3C16.05,14,15,15.86,10.93,15.25Z"/></g></g></svg>