<svg xmlns="http://www.w3.org/2000/svg" viewBox="0 0 18.9 21"><defs><style>.cls-1{fill:#009ee1;}</style></defs><title>profileRecurso 1</title><g id="Capa_2" data-name="Capa 2"><g id="Capa_1-2" data-name="Capa 1"><path class="cls-1" d="M9.49,8.68h.33a.29.29,0,0,0,0-.57H9.5L9.67,7a.29.29,0,0,0-.24-.33.29.29,0,0,0-.33.24h0L8.93,8a.58.58,0,0,0,.48.65Z"/><path class="cls-1" d="M8.15,9.39a.29.29,0,0,0,0,.41h0a1.7,1.7,0,0,0,1.32.55,1.68,1.68,0,0,0,1.32-.55.29.29,0,0,0,0-.41.29.29,0,0,0-.4,0,1.16,1.16,0,0,1-.88.35,1.16,1.16,0,0,1-.88-.35.29.29,0,0,0-.4,0Z"/><path class="cls-1" d="M11.27,7.23a.69.69,0,0,0,0-1.38.69.69,0,0,0-.69.69h0A.69.69,0,0,0,11.27,7.23Z"/><path class="cls-1" d="M7.64,7.23A.69.69,0,1,0,7,6.54.69.69,0,0,0,7.64,7.23Z"/><path class="cls-1" d="M16,14.32a7.37,7.37,0,0,0-1.41-.2c-.51,0-1-.07-1.49-.13s-1-.29-1-.79L11.9,12a3.8,3.8,0,0,0,1.17-1.57A7.71,7.71,0,0,0,13.44,9l0-.12.23,0a1.41,1.41,0,0,0,.17-2.81V3.4A3.4,3.4,0,0,0,10.47,0h-2A3.41,3.41,0,0,0,5,3.4V6.06a1.41,1.41,0,0,0,.14,2.81l.26,0,0,.12a7.5,7.5,0,0,0,.37,1.41A3.8,3.8,0,0,0,7,12l-.16,1.23a1,1,0,0,1-1,.81l-1.06.08a9.37,9.37,0,0,0-1.83.25A4,4,0,0,0,0,18.17v2.54A.29.29,0,0,0,.29,21H18.62a.29.29,0,0,0,.28-.29h0V18.17A4,4,0,0,0,16,14.32Zm-3,.24.2,0L12.1,17,11,16.61,9.9,15.39l2-1.26a2.26,2.26,0,0,0,1.08.43Zm-3,3.56H8.93l-.55-1.21,1.07-1.16,1.08,1.16ZM14.53,7.46a.84.84,0,0,1-.83.84h-.11l.19-.89a4.78,4.78,0,0,0,.09-.76A.83.83,0,0,1,14.53,7.46ZM8.44.57h2A2.85,2.85,0,0,1,13.3,3.4V4.94a1.5,1.5,0,0,1-1.48-1.16l-.12-.5a.3.3,0,0,0-.35-.22.3.3,0,0,0-.2.18L10.89,4a1.51,1.51,0,0,1-1.42,1H5.61V3.4A2.83,2.83,0,0,1,8.44.57ZM4.33,7.46A.83.83,0,0,1,5,6.64a4.92,4.92,0,0,0,.09.76l.2.88-.15,0a.84.84,0,0,1-.84-.84Zm2,2.71A8.4,8.4,0,0,1,6,8.86l-.09-.45L5.68,7.28a3.51,3.51,0,0,1-.07-.72v-1H9.47a2.1,2.1,0,0,0,1.91-1.25A2.09,2.09,0,0,0,13.3,5.52v1a3.53,3.53,0,0,1-.08.72L13,8.41l-.09.45a7.42,7.42,0,0,1-.34,1.31,3.34,3.34,0,0,1-6.18,0Zm3.09,2.64a3.9,3.9,0,0,0,1.92-.5l.12,1a1.66,1.66,0,0,0,.11.38L9.45,15,7.28,13.64a2,2,0,0,0,.12-.34v0l.12-1a3.93,3.93,0,0,0,1.92.5ZM5.84,14.56a1.55,1.55,0,0,0,1.1-.42l0,0,2,1.27L7.87,16.61,6.8,17,5.71,14.57ZM.57,18.17a3.44,3.44,0,0,1,2.52-3.3,9,9,0,0,1,1.72-.23l.29,0,1.29,2.86a.29.29,0,0,0,.36.15l1.13-.42.55,1.2-.91,2H3.61V18.66a.29.29,0,0,0-.58,0v1.77H.57Zm7.58,2.26.78-1.74h1l.78,1.74Zm10.18,0H15.87V18.66a.28.28,0,0,0-.29-.28.27.27,0,0,0-.28.28v1.77H11.38l-.9-2,.54-1.2,1.14.42a.3.3,0,0,0,.36-.15l1.28-2.85h0l.42,0,.27,0a7.14,7.14,0,0,1,1.3.18,3.43,3.43,0,0,1,2.51,3.3Z"/></g></g></svg>