<svg xmlns="http://www.w3.org/2000/svg" viewBox="0 0 17.29 17.29"><defs><style>.cls-1{fill:#009ee1;}</style></defs><title>webRecurso 5</title><g id="Capa_2" data-name="Capa 2"><g id="Capa_1-2" data-name="Capa 1"><path class="cls-1" d="M8.64,0A8.6,8.6,0,0,0,0,8.64a8.59,8.59,0,0,0,8.64,8.65c6.59,0,8.65-5.78,8.65-8.65A8.57,8.57,0,0,0,8.64,0Zm-2,.81A7.7,7.7,0,0,0,4.51,4.43,8.05,8.05,0,0,1,2.79,3.07,8.14,8.14,0,0,1,6.64.81ZM2.42,3.48A8.26,8.26,0,0,0,4.35,5a14.84,14.84,0,0,0-.44,3.37H.56A8.15,8.15,0,0,1,2.42,3.48Zm0,10.32A8.1,8.1,0,0,1,.56,8.92H3.91a14.86,14.86,0,0,0,.44,3.38A9,9,0,0,0,2.42,13.8Zm.37.42a8.05,8.05,0,0,1,1.72-1.36,7.75,7.75,0,0,0,2.13,3.62A8.22,8.22,0,0,1,2.79,14.22Zm5.57,2.49C6.91,16.52,5.67,14.9,5,12.58a8.16,8.16,0,0,1,3.37-.86v5Zm0-5.55A8.47,8.47,0,0,0,4.85,12a14.55,14.55,0,0,1-.39-3.12h3.9v2.24Zm0-2.8H4.46a14.37,14.37,0,0,1,.39-3.11,8.69,8.69,0,0,0,3.51.87Zm0-2.79A8,8,0,0,1,5,4.7C5.67,2.38,6.91.76,8.36.58Zm6.5-2.09a8,8,0,0,1,1.86,4.88H13.38A14.84,14.84,0,0,0,12.94,5,8.7,8.7,0,0,0,14.86,3.48Zm-.37-.41a8,8,0,0,1-1.71,1.36A7.7,7.7,0,0,0,10.65.81,8.11,8.11,0,0,1,14.49,3.07ZM8.92.58c1.45.18,2.7,1.8,3.37,4.12a8,8,0,0,1-3.37.87Zm0,5.54a8.7,8.7,0,0,0,3.52-.87,15,15,0,0,1,.38,3.11H8.92Zm0,2.8h3.9A15.23,15.23,0,0,1,12.44,12a8.55,8.55,0,0,0-3.52-.88Zm0,7.79v-5a8.12,8.12,0,0,1,3.37.86C11.62,14.91,10.37,16.52,8.92,16.71Zm1.73-.24a7.7,7.7,0,0,0,2.13-3.62,7.74,7.74,0,0,1,1.71,1.37A8.09,8.09,0,0,1,10.65,16.47Zm4.21-2.67a8.66,8.66,0,0,0-1.92-1.5,14.93,14.93,0,0,0,.44-3.38h3.34A8,8,0,0,1,14.86,13.8Z"/></g></g></svg>