<svg xmlns="http://www.w3.org/2000/svg" viewBox="0 0 16.9 17"><defs><style>.cls-1{fill:#39b54a;}</style></defs><title>whatsappRecurso 2</title><g id="Capa_2" data-name="Capa 2"><g id="Capa_1-2" data-name="Capa 1"><path class="cls-1" d="M14.43,2.47a8.41,8.41,0,0,0-10.85-.9A.33.33,0,0,0,4,2.11,7.67,7.67,0,0,1,8.48.66,7.76,7.76,0,1,1,4.75,15.23a.26.26,0,0,0-.24,0l-3.7,1,1-3.59a.34.34,0,0,0,0-.26A7.79,7.79,0,0,1,.72,8.42,7.67,7.67,0,0,1,2.17,3.91a.33.33,0,0,0-.54-.39,8.43,8.43,0,0,0-.49,9L0,16.58a.32.32,0,0,0,.09.32.29.29,0,0,0,.23.1H.42l4.13-1.12a8.42,8.42,0,0,0,9.88-13.4Z"/><path class="cls-1" d="M13.92,12.45a.33.33,0,0,0,.46-.1,7.09,7.09,0,0,0-5.9-11A7.09,7.09,0,0,0,2.36,12l.21.37-.65,2.32A.33.33,0,0,0,2,15a.34.34,0,0,0,.32.09l2.39-.65.35.19a7.11,7.11,0,0,0,3.41.87,7,7,0,0,0,3.93-1.19.32.32,0,0,0,.09-.46.33.33,0,0,0-.46-.09,6.42,6.42,0,0,1-6.65.29l-.47-.26a.33.33,0,0,0-.24,0l-2,.53.53-1.89a.36.36,0,0,0,0-.25l-.29-.49a6.43,6.43,0,1,1,10.9.32A.34.34,0,0,0,13.92,12.45Z"/><path class="cls-1" d="M7.27,7.4l0,0a.91.91,0,0,0,.1-1C7.22,6,6.78,5,6.73,4.86A.74.74,0,0,0,6,4.43h-.5s-1.24.2-1.45,2A4.29,4.29,0,0,0,5.2,9.34,8.32,8.32,0,0,0,8.27,12a5.8,5.8,0,0,0,2.43.7h.08a2.19,2.19,0,0,0,1.75-.76,1.76,1.76,0,0,0,.35-.77,3.51,3.51,0,0,0,0-.47.76.76,0,0,0-.41-.75L11.07,9.2a.8.8,0,0,0-1,.18h0a1.59,1.59,0,0,0-.24.29c-.08.11-.26.35-.33.42a3.2,3.2,0,0,1-1.42-.79,5.13,5.13,0,0,1-1.24-1.4v0C7,7.77,7.14,7.55,7.27,7.4Zm.4,2.44a7.27,7.27,0,0,0,1.08.7c.2.1.8.41,1.17.08a4.13,4.13,0,0,0,.44-.54l.16-.2,0-.05c.06-.06.09-.09.22,0l1.43.71s0,.05,0,.13a1.73,1.73,0,0,1,0,.39h0a.93.93,0,0,1-.23.47,1.61,1.61,0,0,1-1.23.49,5,5,0,0,1-2.19-.63A7.74,7.74,0,0,1,5.72,8.94a3.76,3.76,0,0,1-1-2.44c.14-1.2.8-1.39.89-1.41H6a.21.21,0,0,1,.13,0s.49,1.11.66,1.52c.09.2,0,.26,0,.29V7l0,0-.4.45a.69.69,0,0,0-.1.82A5.93,5.93,0,0,0,7.67,9.84Z"/><path class="cls-1" d="M2.76,3A.35.35,0,0,0,3,3a.32.32,0,0,0,0-.47.31.31,0,0,0-.46,0h0A.33.33,0,0,0,2.76,3Z"/><path class="cls-1" d="M13,13h0a.33.33,0,0,0,0,.47.3.3,0,0,0,.22.08.29.29,0,0,0,.24-.11.31.31,0,0,0,0-.46A.32.32,0,0,0,13,13Z"/></g></g></svg>